<svg xmlns="http://www.w3.org/2000/svg" width="1080" height="1080" viewBox="0 0 1080 1080">
  <rect width="1080" height="1080" fill="#0a0a0f"/>
  <circle cx="540" cy="430" r="360" fill="#818cf8" opacity="0.06"/>
  <g transform="translate(412 300)">
    <g transform="scale(4)" opacity="0">
      <animate attributeName="opacity" values="0;1;1;1" keyTimes="0;0.22;0.9;1" dur="4.5s" repeatCount="indefinite"/>
      <animateTransform attributeName="transform" type="scale" values="3.4;4;4;4" keyTimes="0;0.22;0.9;1" dur="4.5s" repeatCount="indefinite" additive="replace"/>
      <path d="M26 55L21 62M38 55L43 62" fill="none" stroke="#3a2a18" stroke-width="5" stroke-linecap="round"/>
      <path d="M22 36L12 24L8 13M42 36L52 24L56 13" fill="none" stroke="#3a2a18" stroke-width="6.5" stroke-linecap="round" stroke-linejoin="round"/>
      <path d="M22 36L12 24L8 13M42 36L52 24L56 13" fill="none" stroke="#b9895c" stroke-width="4" stroke-linecap="round" stroke-linejoin="round"/>
      <polygon points="32,28 18,38 24,56 32,52" fill="#b9895c"/>
      <polygon points="32,28 46,38 40,56 32,52" fill="#8f6840"/>
      <polygon points="24,33 32,28 40,33 32,38" fill="#cca57a"/>
      <polygon points="32,28 46,38 40,56 24,56 18,38" fill="none" stroke="#3a2a18" stroke-width="1.2" stroke-linejoin="round"/>
      <circle cx="32" cy="42" r="2.7" fill="#34d399"/>
    </g>
  </g>
  <text x="540" y="700" font-family="'Segoe UI', Inter, sans-serif" font-size="120" font-weight="700" fill="#f8fafc" text-anchor="middle" opacity="0">
    <animate attributeName="opacity" values="0;0;1;1;1" keyTimes="0;0.32;0.5;0.9;1" dur="4.5s" repeatCount="indefinite"/>karst</text>
  <text x="540" y="775" font-family="'Segoe UI', Inter, sans-serif" font-size="40" fill="#94a3b8" text-anchor="middle" opacity="0">
    <animate attributeName="opacity" values="0;0;1;1;1" keyTimes="0;0.5;0.66;0.9;1" dur="4.5s" repeatCount="indefinite"/>code context for AI dev tools</text>
</svg>
