<svg xmlns="http://www.w3.org/2000/svg" viewBox="0 0 1200 630" width="1200" height="630">
  <defs>
    <radialGradient id="bgGlow" cx="20%" cy="35%" r="65%">
      <stop offset="0%" stop-color="#1a1a2e" stop-opacity="1" />
      <stop offset="100%" stop-color="#0a0a0f" stop-opacity="1" />
    </radialGradient>
    <pattern id="grid" width="48" height="48" patternUnits="userSpaceOnUse">
      <path d="M 48 0 L 0 0 0 48" fill="none" stroke="#1f2937" stroke-width="1" opacity="0.6" />
    </pattern>
    <pattern id="ksStoneL" width="6" height="6" patternUnits="userSpaceOnUse"><rect width="6" height="6" fill="#cca57a"/><circle cx="1.5" cy="2" r="0.7" fill="#a3744a"/><circle cx="4.6" cy="4.4" r="0.6" fill="#a3744a"/><circle cx="3.2" cy="0.8" r="0.4" fill="#e6cca0"/><path d="M0 6L6 0" stroke="#a3744a" stroke-width="0.35" opacity="0.5"/></pattern>
    <pattern id="ksStoneM" width="6" height="6" patternUnits="userSpaceOnUse"><rect width="6" height="6" fill="#b9895c"/><circle cx="2" cy="1.6" r="0.7" fill="#8f6840"/><circle cx="4.8" cy="4" r="0.6" fill="#8f6840"/><circle cx="1" cy="4.6" r="0.4" fill="#cca57a"/><path d="M0 6L6 0" stroke="#8f6840" stroke-width="0.35" opacity="0.5"/></pattern>
    <pattern id="ksStoneD" width="6" height="6" patternUnits="userSpaceOnUse"><rect width="6" height="6" fill="#8f6840"/><circle cx="1.6" cy="2.2" r="0.7" fill="#5c4226"/><circle cx="4.4" cy="4.6" r="0.6" fill="#5c4226"/><circle cx="3" cy="1" r="0.4" fill="#b9895c"/><path d="M0 6L6 0" stroke="#5c4226" stroke-width="0.35" opacity="0.5"/></pattern>
  </defs>

  <!-- Background -->
  <rect width="1200" height="630" fill="url(#bgGlow)" />
  <rect width="1200" height="630" fill="url(#grid)" />

  <!-- Left: karst rock-creature mark (faceted, patterned stone) -->
  <g transform="translate(70, 170) scale(4)">
    <path d="M26 55L21 62M38 55L43 62" fill="none" stroke="#3a2a18" stroke-width="5" stroke-linecap="round"/>
    <path d="M26 55L21 62M38 55L43 62" fill="none" stroke="#a3744a" stroke-width="3" stroke-linecap="round"/>
    <path d="M22 36L12 24L8 13M42 36L52 24L56 13" fill="none" stroke="#3a2a18" stroke-width="6.5" stroke-linecap="round" stroke-linejoin="round"/>
    <path d="M8 13L5 8M8 13L11 8M56 13L53 8M56 13L59 8" fill="none" stroke="#3a2a18" stroke-width="3" stroke-linecap="round"/>
    <path d="M22 36L12 24L8 13M42 36L52 24L56 13" fill="none" stroke="#b9895c" stroke-width="4" stroke-linecap="round" stroke-linejoin="round"/>
    <polygon points="32,28 18,38 24,56 32,52" fill="url(#ksStoneM)"/>
    <polygon points="32,28 46,38 40,56 32,52" fill="url(#ksStoneD)"/>
    <polygon points="24,33 32,28 40,33 32,38" fill="url(#ksStoneL)"/>
    <polygon points="32,28 46,38 40,56 24,56 18,38" fill="none" stroke="#3a2a18" stroke-width="1.2" stroke-linejoin="round"/>
    <line x1="32" y1="38" x2="32" y2="52" stroke="#3a2a18" stroke-width="0.8"/>
    <circle cx="12" cy="24" r="1.7" fill="#34d399"/>
    <circle cx="52" cy="24" r="1.7" fill="#34d399"/>
    <circle cx="32" cy="42" r="2.7" fill="#34d399"/>
    <circle cx="31.1" cy="41.1" r="0.9" fill="#d1fae5"/>
  </g>

  <!-- Right: wordmark + tagline -->
  <g transform="translate(440, 0)" font-family="Inter, system-ui, sans-serif" fill="#f8fafc">
    <text x="0" y="280" font-size="128" font-weight="700" letter-spacing="-2">karst</text>
    <text x="6" y="350" font-size="36" font-weight="500" fill="#94a3b8">code context for AI dev tools</text>
    <g transform="translate(6, 400)" font-family="JetBrains Mono, ui-monospace, monospace" font-size="22" fill="#818cf8">
      <text x="0" y="0">MCP-native &#183; Apache 2.0 &#183; Self-hosted</text>
    </g>
  </g>
</svg>
