<svg xmlns="http://www.w3.org/2000/svg" viewBox="0 0 1200 630" width="1200" height="630">
  <defs>
    <radialGradient id="bgGlow" cx="20%" cy="35%" r="65%">
      <stop offset="0%" stop-color="#1a1a2e" stop-opacity="1" />
      <stop offset="100%" stop-color="#0a0a0f" stop-opacity="1" />
    </radialGradient>
    <pattern id="grid" width="48" height="48" patternUnits="userSpaceOnUse">
      <path d="M 48 0 L 0 0 0 48" fill="none" stroke="#1f2937" stroke-width="1" opacity="0.6" />
    </pattern>
  </defs>

  <!-- Background -->
  <rect width="1200" height="630" fill="url(#bgGlow)" />
  <rect width="1200" height="630" fill="url(#grid)" />

  <!-- Left: Rocky mark (five-legged Eridian) scaled up from the 40x40 mark -->
  <g transform="translate(60, 195) scale(6)">
    <g transform="rotate(0 20 20)"><path d="M17.5,19.5 L18.6,9.8 Q19,4.8 20,4.2 Q21,4.8 21.4,9.8 L22.5,19.5 Z" fill="#818cf8" stroke="#ffffff" stroke-width="1" stroke-linejoin="round"/><line x1="20" y1="4.6" x2="18.8" y2="2.6" stroke="#ffffff" stroke-width="1" stroke-linecap="round"/><line x1="20" y1="4.6" x2="21.2" y2="2.6" stroke="#ffffff" stroke-width="1" stroke-linecap="round"/></g>
    <g transform="rotate(72 20 20)"><path d="M17.5,19.5 L18.6,9.8 Q19,4.8 20,4.2 Q21,4.8 21.4,9.8 L22.5,19.5 Z" fill="#818cf8" stroke="#ffffff" stroke-width="1" stroke-linejoin="round"/><line x1="20" y1="4.6" x2="18.8" y2="2.6" stroke="#ffffff" stroke-width="1" stroke-linecap="round"/><line x1="20" y1="4.6" x2="21.2" y2="2.6" stroke="#ffffff" stroke-width="1" stroke-linecap="round"/></g>
    <g transform="rotate(144 20 20)"><path d="M17.5,19.5 L18.6,9.8 Q19,4.8 20,4.2 Q21,4.8 21.4,9.8 L22.5,19.5 Z" fill="#818cf8" stroke="#ffffff" stroke-width="1" stroke-linejoin="round"/><line x1="20" y1="4.6" x2="18.8" y2="2.6" stroke="#ffffff" stroke-width="1" stroke-linecap="round"/><line x1="20" y1="4.6" x2="21.2" y2="2.6" stroke="#ffffff" stroke-width="1" stroke-linecap="round"/></g>
    <g transform="rotate(216 20 20)"><path d="M17.5,19.5 L18.6,9.8 Q19,4.8 20,4.2 Q21,4.8 21.4,9.8 L22.5,19.5 Z" fill="#818cf8" stroke="#ffffff" stroke-width="1" stroke-linejoin="round"/><line x1="20" y1="4.6" x2="18.8" y2="2.6" stroke="#ffffff" stroke-width="1" stroke-linecap="round"/><line x1="20" y1="4.6" x2="21.2" y2="2.6" stroke="#ffffff" stroke-width="1" stroke-linecap="round"/></g>
    <g transform="rotate(288 20 20)"><path d="M17.5,19.5 L18.6,9.8 Q19,4.8 20,4.2 Q21,4.8 21.4,9.8 L22.5,19.5 Z" fill="#818cf8" stroke="#ffffff" stroke-width="1" stroke-linejoin="round"/><line x1="20" y1="4.6" x2="18.8" y2="2.6" stroke="#ffffff" stroke-width="1" stroke-linecap="round"/><line x1="20" y1="4.6" x2="21.2" y2="2.6" stroke="#ffffff" stroke-width="1" stroke-linecap="round"/></g>
    <circle cx="20" cy="20" r="6.2" fill="#6366f1" stroke="#ffffff" stroke-width="1.2"/>
    <ellipse cx="18.2" cy="18" rx="2.3" ry="1.5" fill="#a5b4fc" opacity="0.75"/>
  </g>

  <!-- Right: wordmark + tagline -->
  <g transform="translate(440, 0)" font-family="Inter, system-ui, sans-serif" fill="#f8fafc">
    <text x="0" y="280" font-size="128" font-weight="700" letter-spacing="-2">karst</text>
    <text x="6" y="350" font-size="36" font-weight="500" fill="#94a3b8">code context for AI dev tools</text>
    <g transform="translate(6, 400)" font-family="JetBrains Mono, ui-monospace, monospace" font-size="22" fill="#818cf8">
      <text x="0" y="0">MCP-native &#183; Apache 2.0 &#183; Self-hosted</text>
    </g>
  </g>
</svg>
