<svg xmlns="http://www.w3.org/2000/svg" viewBox="0 0 1200 630" width="1200" height="630">
  <defs>
    <radialGradient id="bgGlow" cx="20%" cy="35%" r="65%">
      <stop offset="0%" stop-color="#1a1a2e" stop-opacity="1" />
      <stop offset="100%" stop-color="#0a0a0f" stop-opacity="1" />
    </radialGradient>
    <pattern id="grid" width="48" height="48" patternUnits="userSpaceOnUse">
      <path d="M 48 0 L 0 0 0 48" fill="none" stroke="#1f2937" stroke-width="1" opacity="0.6" />
    </pattern>
  </defs>

  <!-- Background -->
  <rect width="1200" height="630" fill="url(#bgGlow)" />
  <rect width="1200" height="630" fill="url(#grid)" />

  <!-- Left: Rocky in his crystalline containment — faceted rock specimen -->
  <g transform="translate(60, 195) scale(6)">
    <polygon points="20,2.5 36,20 20,37.5 4,20" fill="#818cf8" fill-opacity="0.07" stroke="#c7d2fe" stroke-opacity="0.5" stroke-width="1" stroke-linejoin="round"/>
    <line x1="20" y1="2.5" x2="13" y2="11" stroke="#e0e7ff" stroke-opacity="0.4" stroke-width="0.8" stroke-linecap="round"/>
    <g stroke="#4a3420" stroke-width="0.6" stroke-linejoin="round">
      <polygon points="20,7 31,14 19,19" fill="#c39a6b"/>
      <polygon points="31,14 28,30 19,19" fill="#a3744a"/>
      <polygon points="28,30 16,33 19,19" fill="#8f6840"/>
      <polygon points="16,33 9,24 19,19" fill="#a87c54"/>
      <polygon points="9,24 11,12 19,19" fill="#b9895c"/>
      <polygon points="11,12 20,7 19,19" fill="#cca57a"/>
    </g>
    <polygon points="20,7 31,14 19,19 11,12" fill="#d9b88c" opacity="0.35"/>
    <path d="M19,19 L22,24 M19,19 L15,21" stroke="#5c4226" stroke-width="0.5" fill="none" stroke-linecap="round"/>
    <circle cx="24" cy="12.5" r="1.7" fill="#34d399"/>
    <circle cx="23.4" cy="11.9" r="0.5" fill="#d1fae5"/>
    <polygon points="20,7 31,14 28,30 16,33 9,24 11,12" fill="none" stroke="#3a2a18" stroke-width="1" stroke-linejoin="round"/>
  </g>

  <!-- Right: wordmark + tagline -->
  <g transform="translate(440, 0)" font-family="Inter, system-ui, sans-serif" fill="#f8fafc">
    <text x="0" y="280" font-size="128" font-weight="700" letter-spacing="-2">karst</text>
    <text x="6" y="350" font-size="36" font-weight="500" fill="#94a3b8">code context for AI dev tools</text>
    <g transform="translate(6, 400)" font-family="JetBrains Mono, ui-monospace, monospace" font-size="22" fill="#818cf8">
      <text x="0" y="0">MCP-native &#183; Apache 2.0 &#183; Self-hosted</text>
    </g>
  </g>
</svg>
