<svg xmlns="http://www.w3.org/2000/svg" width="1080" height="1080" viewBox="0 0 1080 1080"><rect width="1080" height="1080" fill="#0a0a0f"/><circle cx="540" cy="194.4" r="669.6" fill="#818cf8" opacity="0.06"/><g transform="translate(59.4 67.60799999999999) scale(1.1812500000000001)">
    <path d="M26 55L21 62M38 55L43 62" fill="none" stroke="#3a2a18" stroke-width="5" stroke-linecap="round"/>
    <path d="M22 36L12 24L8 13M42 36L52 24L56 13" fill="none" stroke="#3a2a18" stroke-width="6.5" stroke-linecap="round" stroke-linejoin="round"/>
    <path d="M22 36L12 24L8 13M42 36L52 24L56 13" fill="none" stroke="#b9895c" stroke-width="4" stroke-linecap="round" stroke-linejoin="round"/>
    <polygon points="32,28 18,38 24,56 32,52" fill="#b9895c"/>
    <polygon points="32,28 46,38 40,56 32,52" fill="#8f6840"/>
    <polygon points="24,33 32,28 40,33 32,38" fill="#cca57a"/>
    <polygon points="32,28 46,38 40,56 24,56 18,38" fill="none" stroke="#3a2a18" stroke-width="1.2" stroke-linejoin="round"/>
    <circle cx="32" cy="42" r="2.7" fill="#34d399"/>
  </g><text x="153.9" y="129.6" font-family="Inter, 'Segoe UI', system-ui, sans-serif" font-size="75.60000000000001" font-weight="600" fill="#f8fafc">karst</text><text x="540" y="307.79999999999995" font-family="'JetBrains Mono', Consolas, monospace" font-size="41.04" font-weight="500" fill="#818cf8" text-anchor="middle" letter-spacing="2">MCP-NATIVE · OPEN SOURCE</text><text x="540" y="453.59999999999997" font-family="Inter, 'Segoe UI', system-ui, sans-serif" font-size="91.80000000000001" font-weight="700" fill="#f8fafc" text-anchor="middle">Code context</text><text x="540" y="552.744" font-family="Inter, 'Segoe UI', system-ui, sans-serif" font-size="91.80000000000001" font-weight="700" fill="#f8fafc" text-anchor="middle">for AI</text><text x="540" y="651.888" font-family="Inter, 'Segoe UI', system-ui, sans-serif" font-size="91.80000000000001" font-weight="700" fill="#f8fafc" text-anchor="middle">dev tools</text><text x="540" y="772.6320000000001" font-family="Inter, 'Segoe UI', system-ui, sans-serif" font-size="47.519999999999996" fill="#94a3b8" text-anchor="middle">Precise, cited, token-efficient.</text><rect x="75.60000000000002" y="945" width="928.8" height="91.80000000000001" rx="17" fill="#0f172a" stroke="#1f2937"/>
    <text x="540" y="1003.752" font-family="'JetBrains Mono', Consolas, monospace" font-size="39" fill="#e2e8f0" text-anchor="middle">pip install karst</text></svg>