<svg xmlns="http://www.w3.org/2000/svg" width="1600" height="900" viewBox="0 0 1600 900"><rect width="1600" height="900" fill="#0a0a0f"/><circle cx="1312" cy="180" r="558" fill="#818cf8" opacity="0.06"/><g transform="translate(88 56.339999999999996) scale(0.9843750000000001)">
    <path d="M26 55L21 62M38 55L43 62" fill="none" stroke="#3a2a18" stroke-width="5" stroke-linecap="round"/>
    <path d="M22 36L12 24L8 13M42 36L52 24L56 13" fill="none" stroke="#3a2a18" stroke-width="6.5" stroke-linecap="round" stroke-linejoin="round"/>
    <path d="M22 36L12 24L8 13M42 36L52 24L56 13" fill="none" stroke="#b9895c" stroke-width="4" stroke-linecap="round" stroke-linejoin="round"/>
    <polygon points="32,28 18,38 24,56 32,52" fill="#b9895c"/>
    <polygon points="32,28 46,38 40,56 32,52" fill="#8f6840"/>
    <polygon points="24,33 32,28 40,33 32,38" fill="#cca57a"/>
    <polygon points="32,28 46,38 40,56 24,56 18,38" fill="none" stroke="#3a2a18" stroke-width="1.2" stroke-linejoin="round"/>
    <circle cx="32" cy="42" r="2.7" fill="#34d399"/>
  </g><text x="166.75" y="108" font-family="Inter, 'Segoe UI', system-ui, sans-serif" font-size="63.00000000000001" font-weight="600" fill="#f8fafc">karst</text><text x="88" y="197.8" font-family="'JetBrains Mono', Consolas, monospace" font-size="34.199999999999996" font-weight="500" fill="#818cf8" text-anchor="start" letter-spacing="2">PRIVATE BY DESIGN</text><text x="88" y="342" font-family="Inter, 'Segoe UI', system-ui, sans-serif" font-size="99.2" font-weight="700" fill="#f8fafc" text-anchor="start">Runs on your machine</text><text x="88" y="467.136" font-family="Inter, 'Segoe UI', system-ui, sans-serif" font-size="39.599999999999994" fill="#94a3b8" text-anchor="start">Local-first. With a local model, your code never leaves.</text><rect x="88" y="720" width="334.8" height="64.8" rx="32.4" fill="rgba(52,211,153,0.10)" stroke="rgba(52,211,153,0.4)"/>
    <text x="255.4" y="762.768" font-family="Inter, 'Segoe UI', system-ui, sans-serif" font-size="26" font-weight="500" fill="#34d399" text-anchor="middle">air-gappable</text><rect x="449.79999999999995" y="720" width="288" height="64.8" rx="32.4" fill="rgba(129,140,248,0.10)" stroke="rgba(129,140,248,0.4)"/>
    <text x="593.8" y="762.768" font-family="Inter, 'Segoe UI', system-ui, sans-serif" font-size="26" font-weight="500" fill="#818cf8" text-anchor="middle">no API key</text></svg>