<svg xmlns="http://www.w3.org/2000/svg" width="1080" height="1350" viewBox="0 0 1080 1350"><rect width="1080" height="1350" fill="#0a0a0f"/><circle cx="540" cy="243" r="669.6" fill="#818cf8" opacity="0.06"/><g transform="translate(59.4 100.008) scale(1.1812500000000001)">
    <path d="M26 55L21 62M38 55L43 62" fill="none" stroke="#3a2a18" stroke-width="5" stroke-linecap="round"/>
    <path d="M22 36L12 24L8 13M42 36L52 24L56 13" fill="none" stroke="#3a2a18" stroke-width="6.5" stroke-linecap="round" stroke-linejoin="round"/>
    <path d="M22 36L12 24L8 13M42 36L52 24L56 13" fill="none" stroke="#b9895c" stroke-width="4" stroke-linecap="round" stroke-linejoin="round"/>
    <polygon points="32,28 18,38 24,56 32,52" fill="#b9895c"/>
    <polygon points="32,28 46,38 40,56 32,52" fill="#8f6840"/>
    <polygon points="24,33 32,28 40,33 32,38" fill="#cca57a"/>
    <polygon points="32,28 46,38 40,56 24,56 18,38" fill="none" stroke="#3a2a18" stroke-width="1.2" stroke-linejoin="round"/>
    <circle cx="32" cy="42" r="2.7" fill="#34d399"/>
  </g><text x="153.9" y="162" font-family="Inter, 'Segoe UI', system-ui, sans-serif" font-size="75.60000000000001" font-weight="600" fill="#f8fafc">karst</text><text x="540" y="421.2" font-family="'JetBrains Mono', Consolas, monospace" font-size="41.04" font-weight="500" fill="#818cf8" text-anchor="middle" letter-spacing="2">FOR REGULATED TEAMS</text><text x="540" y="567" font-family="Inter, 'Segoe UI', system-ui, sans-serif" font-size="91.80000000000001" font-weight="700" fill="#f8fafc" text-anchor="middle">Self-hosted</text><text x="540" y="666.144" font-family="Inter, 'Segoe UI', system-ui, sans-serif" font-size="91.80000000000001" font-weight="700" fill="#f8fafc" text-anchor="middle">&amp; private</text><text x="540" y="786.888" font-family="Inter, 'Segoe UI', system-ui, sans-serif" font-size="47.519999999999996" fill="#94a3b8" text-anchor="middle">Apache-2.0. Air-gappable. No code leaves.</text></svg>