<svg xmlns="http://www.w3.org/2000/svg" width="1080" height="1080" viewBox="0 0 1080 1080"><rect width="1080" height="1080" fill="#0a0a0f"/><circle cx="540" cy="194.4" r="669.6" fill="#818cf8" opacity="0.06"/><g transform="translate(59.4 67.60799999999999) scale(1.1812500000000001)">
    <path d="M26 55L21 62M38 55L43 62" fill="none" stroke="#3a2a18" stroke-width="5" stroke-linecap="round"/>
    <path d="M22 36L12 24L8 13M42 36L52 24L56 13" fill="none" stroke="#3a2a18" stroke-width="6.5" stroke-linecap="round" stroke-linejoin="round"/>
    <path d="M22 36L12 24L8 13M42 36L52 24L56 13" fill="none" stroke="#b9895c" stroke-width="4" stroke-linecap="round" stroke-linejoin="round"/>
    <polygon points="32,28 18,38 24,56 32,52" fill="#b9895c"/>
    <polygon points="32,28 46,38 40,56 32,52" fill="#8f6840"/>
    <polygon points="24,33 32,28 40,33 32,38" fill="#cca57a"/>
    <polygon points="32,28 46,38 40,56 24,56 18,38" fill="none" stroke="#3a2a18" stroke-width="1.2" stroke-linejoin="round"/>
    <circle cx="32" cy="42" r="2.7" fill="#34d399"/>
  </g><text x="153.9" y="129.6" font-family="Inter, 'Segoe UI', system-ui, sans-serif" font-size="75.60000000000001" font-weight="600" fill="#f8fafc">karst</text><text x="64.8" y="180.36" font-family="'JetBrains Mono', Consolas, monospace" font-size="34.56" font-weight="500" fill="#818cf8" letter-spacing="2">REAL OUTPUT</text><text x="64.8" y="243" font-family="Inter, 'Segoe UI', system-ui, sans-serif" font-size="62.64" font-weight="700" fill="#f8fafc">What breaks if</text><text x="64.8" y="313.1568" font-family="Inter, 'Segoe UI', system-ui, sans-serif" font-size="62.64" font-weight="700" fill="#818cf8">I change this?</text><rect x="64.8" y="415.71359999999993" width="950.4" height="448.28640000000007" rx="17.1072" fill="#0d1117" stroke="#1f2937"/><path d="M64.8 460.3493270029673H1015.1999999999999" stroke="#1f2937" stroke-width="1"/><circle cx="100.9152" cy="438.0314635014836" r="4.835537091988132" fill="#ef4444" opacity="0.75"/><circle cx="116.38891869436202" cy="438.0314635014836" r="4.835537091988132" fill="#f59e0b" opacity="0.75"/><circle cx="131.86263738872404" cy="438.0314635014836" r="4.835537091988132" fill="#22c55e" opacity="0.75"/><text x="540" y="444.3548581602373" font-family="'JetBrains Mono', Consolas, monospace" font-size="15.250540059347184" fill="#94a3b8" text-anchor="middle">karst impact</text><text x="100.9152" y="526.1611470623145" font-family="'JetBrains Mono', Consolas, monospace" font-size="18.598219584569737" fill="#e2e8f0" xml:space="preserve">$ karst impact --target Chunk</text><text x="100.9152" y="586.4193785163204" font-family="'JetBrains Mono', Consolas, monospace" font-size="18.598219584569737" fill="#94a3b8" xml:space="preserve">Targets:  karst/models.py::Chunk</text><text x="100.9152" y="616.5484942433234" font-family="'JetBrains Mono', Consolas, monospace" font-size="18.598219584569737" fill="#fbbf24" xml:space="preserve">Affected: 52     Risk: CRITICAL</text><text x="100.9152" y="676.8067256973293" font-family="'JetBrains Mono', Consolas, monospace" font-size="18.598219584569737" fill="#e2e8f0" xml:space="preserve"> depth 1  calls   chunker.py:119-164</text><text x="100.9152" y="706.9358414243322" font-family="'JetBrains Mono', Consolas, monospace" font-size="18.598219584569737" fill="#e2e8f0" xml:space="preserve"> depth 1  calls   store.py:337-355</text><text x="100.9152" y="737.0649571513352" font-family="'JetBrains Mono', Consolas, monospace" font-size="18.598219584569737" fill="#e2e8f0" xml:space="preserve"> depth 2  calls   graphrag.py:130-153</text><text x="100.9152" y="767.1940728783381" font-family="'JetBrains Mono', Consolas, monospace" font-size="18.598219584569737" fill="#e2e8f0" xml:space="preserve"> depth 2  calls   store.py:187-249</text><text x="100.9152" y="797.3231886053411" font-family="'JetBrains Mono', Consolas, monospace" font-size="18.598219584569737" fill="#e2e8f0" xml:space="preserve"> depth 3  calls   mcp_server.py:173-226</text><text x="100.9152" y="827.452304332344" font-family="'JetBrains Mono', Consolas, monospace" font-size="18.598219584569737" fill="#94a3b8" xml:space="preserve"> … and 46 more</text><text x="64.8" y="941.76" font-family="Inter, 'Segoe UI', system-ui, sans-serif" font-size="38.879999999999995" fill="#94a3b8">One model class. 52 dependents, each verifiable.</text></svg>