<svg xmlns="http://www.w3.org/2000/svg" width="1080" height="1350" viewBox="0 0 1080 1350"><rect width="1080" height="1350" fill="#0a0a0f"/><circle cx="540" cy="243" r="669.6" fill="#818cf8" opacity="0.06"/><g transform="translate(59.4 100.008) scale(1.1812500000000001)">
    <path d="M26 55L21 62M38 55L43 62" fill="none" stroke="#3a2a18" stroke-width="5" stroke-linecap="round"/>
    <path d="M22 36L12 24L8 13M42 36L52 24L56 13" fill="none" stroke="#3a2a18" stroke-width="6.5" stroke-linecap="round" stroke-linejoin="round"/>
    <path d="M22 36L12 24L8 13M42 36L52 24L56 13" fill="none" stroke="#b9895c" stroke-width="4" stroke-linecap="round" stroke-linejoin="round"/>
    <polygon points="32,28 18,38 24,56 32,52" fill="#b9895c"/>
    <polygon points="32,28 46,38 40,56 32,52" fill="#8f6840"/>
    <polygon points="24,33 32,28 40,33 32,38" fill="#cca57a"/>
    <polygon points="32,28 46,38 40,56 24,56 18,38" fill="none" stroke="#3a2a18" stroke-width="1.2" stroke-linejoin="round"/>
    <circle cx="32" cy="42" r="2.7" fill="#34d399"/>
  </g><text x="153.9" y="162" font-family="Inter, 'Segoe UI', system-ui, sans-serif" font-size="75.60000000000001" font-weight="600" fill="#f8fafc">karst</text><text x="64.8" y="241.11" font-family="'JetBrains Mono', Consolas, monospace" font-size="34.56" font-weight="500" fill="#818cf8" letter-spacing="2">REAL OUTPUT</text><text x="64.8" y="303.75" font-family="Inter, 'Segoe UI', system-ui, sans-serif" font-size="62.64" font-weight="700" fill="#f8fafc">Know the</text><text x="64.8" y="373.9068" font-family="Inter, 'Segoe UI', system-ui, sans-serif" font-size="62.64" font-weight="700" fill="#818cf8">blast radius</text><rect x="64.8" y="476.46359999999993" width="950.4" height="630.5364000000001" rx="17.1072" fill="#0d1117" stroke="#1f2937"/><path d="M64.8 563.6989124999999H1015.1999999999999" stroke="#1f2937" stroke-width="1"/><circle cx="100.9152" cy="520.0812562499999" r="9.4504921875" fill="#ef4444" opacity="0.75"/><circle cx="131.156775" cy="520.0812562499999" r="9.4504921875" fill="#f59e0b" opacity="0.75"/><circle cx="161.39835" cy="520.0812562499999" r="9.4504921875" fill="#22c55e" opacity="0.75"/><text x="540" y="532.4395921874999" font-family="'JetBrains Mono', Consolas, monospace" font-size="29.8053984375" fill="#94a3b8" text-anchor="middle">karst impact</text><text x="100.9152" y="644.0655909374999" font-family="'JetBrains Mono', Consolas, monospace" font-size="36.348046875" fill="#e2e8f0" xml:space="preserve">$ karst impact --target Chunk</text><text x="100.9152" y="761.8332628124999" font-family="'JetBrains Mono', Consolas, monospace" font-size="36.348046875" fill="#fbbf24" xml:space="preserve">Affected: 52     Risk: CRITICAL</text><text x="100.9152" y="879.6009346874998" font-family="'JetBrains Mono', Consolas, monospace" font-size="36.348046875" fill="#e2e8f0" xml:space="preserve"> depth 1  calls   chunker.py:119-164</text><text x="100.9152" y="938.4847706249998" font-family="'JetBrains Mono', Consolas, monospace" font-size="36.348046875" fill="#e2e8f0" xml:space="preserve"> depth 2  calls   store.py:187-249</text><text x="100.9152" y="997.3686065624997" font-family="'JetBrains Mono', Consolas, monospace" font-size="36.348046875" fill="#e2e8f0" xml:space="preserve"> depth 3  calls   mcp_server.py:173-226</text><text x="100.9152" y="1056.2524424999997" font-family="'JetBrains Mono', Consolas, monospace" font-size="36.348046875" fill="#94a3b8" xml:space="preserve"> … and 46 more</text><text x="64.8" y="1184.76" font-family="Inter, 'Segoe UI', system-ui, sans-serif" font-size="38.879999999999995" fill="#94a3b8">Every row cites an exact file:line. Verify, don’t trust.</text></svg>