<svg xmlns="http://www.w3.org/2000/svg" width="1080" height="1080" viewBox="0 0 1080 1080"><rect width="1080" height="1080" fill="#0a0a0f"/><circle cx="540" cy="194.4" r="669.6" fill="#818cf8" opacity="0.06"/><g transform="translate(59.4 67.60799999999999) scale(1.1812500000000001)">
    <path d="M26 55L21 62M38 55L43 62" fill="none" stroke="#3a2a18" stroke-width="5" stroke-linecap="round"/>
    <path d="M22 36L12 24L8 13M42 36L52 24L56 13" fill="none" stroke="#3a2a18" stroke-width="6.5" stroke-linecap="round" stroke-linejoin="round"/>
    <path d="M22 36L12 24L8 13M42 36L52 24L56 13" fill="none" stroke="#b9895c" stroke-width="4" stroke-linecap="round" stroke-linejoin="round"/>
    <polygon points="32,28 18,38 24,56 32,52" fill="#b9895c"/>
    <polygon points="32,28 46,38 40,56 32,52" fill="#8f6840"/>
    <polygon points="24,33 32,28 40,33 32,38" fill="#cca57a"/>
    <polygon points="32,28 46,38 40,56 24,56 18,38" fill="none" stroke="#3a2a18" stroke-width="1.2" stroke-linejoin="round"/>
    <circle cx="32" cy="42" r="2.7" fill="#34d399"/>
  </g><text x="153.9" y="129.6" font-family="Inter, 'Segoe UI', system-ui, sans-serif" font-size="75.60000000000001" font-weight="600" fill="#f8fafc">karst</text><text x="64.8" y="180.36" font-family="'JetBrains Mono', Consolas, monospace" font-size="34.56" font-weight="500" fill="#818cf8" letter-spacing="2">REAL OUTPUT</text><text x="64.8" y="243" font-family="Inter, 'Segoe UI', system-ui, sans-serif" font-size="62.64" font-weight="700" fill="#f8fafc">A real call graph,</text><text x="64.8" y="313.1568" font-family="Inter, 'Segoe UI', system-ui, sans-serif" font-size="62.64" font-weight="700" fill="#818cf8">in 6.4 seconds</text><rect x="64.8" y="415.71359999999993" width="950.4" height="448.28640000000007" rx="17.1072" fill="#0d1117" stroke="#1f2937"/><path d="M64.8 464.2369548387096H1015.1999999999999" stroke="#1f2937" stroke-width="1"/><circle cx="100.9152" cy="439.97527741935477" r="5.256696774193549" fill="#ef4444" opacity="0.75"/><circle cx="117.73662967741936" cy="439.97527741935477" r="5.256696774193549" fill="#f59e0b" opacity="0.75"/><circle cx="134.55805935483872" cy="439.97527741935477" r="5.256696774193549" fill="#22c55e" opacity="0.75"/><text x="540" y="446.84941935483863" font-family="'JetBrains Mono', Consolas, monospace" font-size="16.578812903225806" fill="#94a3b8" text-anchor="middle">karst graph-index</text><text x="100.9152" y="531.3770477419354" font-family="'JetBrains Mono', Consolas, monospace" font-size="20.218064516129033" fill="#e2e8f0" xml:space="preserve">$ karst graph-index .</text><text x="100.9152" y="596.8835767741934" font-family="'JetBrains Mono', Consolas, monospace" font-size="20.218064516129033" fill="#34d399" xml:space="preserve">Built graph: 1001 nodes, 2718 edges</text><text x="100.9152" y="629.6368412903225" font-family="'JetBrains Mono', Consolas, monospace" font-size="20.218064516129033" fill="#94a3b8" xml:space="preserve">from 135 files / 739 chunks in 6.4s</text><text x="100.9152" y="695.1433703225807" font-family="'JetBrains Mono', Consolas, monospace" font-size="20.218064516129033" fill="#94a3b8" xml:space="preserve">Edges by kind:</text><text x="100.9152" y="727.8966348387098" font-family="'JetBrains Mono', Consolas, monospace" font-size="20.218064516129033" fill="#e2e8f0" xml:space="preserve">  calls        1373</text><text x="100.9152" y="760.6498993548389" font-family="'JetBrains Mono', Consolas, monospace" font-size="20.218064516129033" fill="#e2e8f0" xml:space="preserve">  contains      739</text><text x="100.9152" y="793.403163870968" font-family="'JetBrains Mono', Consolas, monospace" font-size="20.218064516129033" fill="#e2e8f0" xml:space="preserve">  imports       604</text><text x="100.9152" y="826.1564283870971" font-family="'JetBrains Mono', Consolas, monospace" font-size="20.218064516129033" fill="#e2e8f0" xml:space="preserve">  implements      2</text><text x="64.8" y="941.76" font-family="Inter, 'Segoe UI', system-ui, sans-serif" font-size="38.879999999999995" fill="#94a3b8">Not embeddings. Actual call and import edges.</text></svg>