<svg xmlns="http://www.w3.org/2000/svg" width="1600" height="900" viewBox="0 0 1600 900"><rect width="1600" height="900" fill="#0a0a0f"/><circle cx="1312" cy="180" r="558" fill="#818cf8" opacity="0.06"/><g transform="translate(88 56.339999999999996) scale(0.9843750000000001)">
    <path d="M26 55L21 62M38 55L43 62" fill="none" stroke="#3a2a18" stroke-width="5" stroke-linecap="round"/>
    <path d="M22 36L12 24L8 13M42 36L52 24L56 13" fill="none" stroke="#3a2a18" stroke-width="6.5" stroke-linecap="round" stroke-linejoin="round"/>
    <path d="M22 36L12 24L8 13M42 36L52 24L56 13" fill="none" stroke="#b9895c" stroke-width="4" stroke-linecap="round" stroke-linejoin="round"/>
    <polygon points="32,28 18,38 24,56 32,52" fill="#b9895c"/>
    <polygon points="32,28 46,38 40,56 32,52" fill="#8f6840"/>
    <polygon points="24,33 32,28 40,33 32,38" fill="#cca57a"/>
    <polygon points="32,28 46,38 40,56 24,56 18,38" fill="none" stroke="#3a2a18" stroke-width="1.2" stroke-linejoin="round"/>
    <circle cx="32" cy="42" r="2.7" fill="#34d399"/>
  </g><text x="166.75" y="108" font-family="Inter, 'Segoe UI', system-ui, sans-serif" font-size="63.00000000000001" font-weight="600" fill="#f8fafc">karst</text><text x="96" y="150.3" font-family="'JetBrains Mono', Consolas, monospace" font-size="28.8" font-weight="500" fill="#818cf8" letter-spacing="2">REAL OUTPUT</text><text x="96" y="202.5" font-family="Inter, 'Segoe UI', system-ui, sans-serif" font-size="52.2" font-weight="700" fill="#f8fafc">The exact bill, every answer</text><rect x="96" y="287.964" width="1408" height="432.0360000000001" rx="25.343999999999998" fill="#0d1117" stroke="#1f2937"/><path d="M96 344.7374497816594H1504" stroke="#1f2937" stroke-width="1"/><circle cx="149.504" cy="316.3507248908297" r="6.150457059679769" fill="#ef4444" opacity="0.75"/><circle cx="169.18546259097525" cy="316.3507248908297" r="6.150457059679769" fill="#f59e0b" opacity="0.75"/><circle cx="188.8669251819505" cy="316.3507248908297" r="6.150457059679769" fill="#22c55e" opacity="0.75"/><text x="800" y="324.3936302765648" font-family="'JetBrains Mono', Consolas, monospace" font-size="19.39759534206696" fill="#94a3b8" text-anchor="middle">karst ask</text><text x="149.504" y="439.04064512372634" font-family="'JetBrains Mono', Consolas, monospace" font-size="23.655604075691418" fill="#e2e8f0" xml:space="preserve">$ karst ask "how does indexing work?"</text><text x="149.504" y="515.6848023289665" font-family="'JetBrains Mono', Consolas, monospace" font-size="23.655604075691418" fill="#94a3b8" xml:space="preserve">  … cited answer, 3 sources …</text><text x="149.504" y="592.3289595342067" font-family="'JetBrains Mono', Consolas, monospace" font-size="23.655604075691418" fill="#e2e8f0" xml:space="preserve">1,840 in + 612 out tok</text><text x="149.504" y="630.6510381368267" font-family="'JetBrains Mono', Consolas, monospace" font-size="23.655604075691418" fill="#34d399" xml:space="preserve">$0.0276 + $0.0459 = $0.0735</text><text x="149.504" y="668.9731167394468" font-family="'JetBrains Mono', Consolas, monospace" font-size="23.655604075691418" fill="#94a3b8" xml:space="preserve">(anthropic:claude-opus-4-8)</text><text x="96" y="784.8000000000001" font-family="Inter, 'Segoe UI', system-ui, sans-serif" font-size="32.4" fill="#94a3b8">Estimate before the call. Real provider tokens after.</text></svg>